<svg width="42" height="58" viewBox="0 0 42 58" fill="none" xmlns="http://www.w3.org/2000/svg">
<path d="M0 16.9166V21.75V24.1666V31.4166V33.8333V45.9166V48.3332C0 50.9916 2.08927 53.1666 4.66667 53.1666H37.3333C39.9117 53.1666 42 50.9916 42 48.3332V45.9166V33.8333V24.1666V16.9166H0Z" fill="#6A14DA"/>
<path d="M0 14.5V19.3333V21.75V29V31.4166V43.5V45.9166C0 48.5749 2.08927 50.7499 4.66667 50.7499H37.3333C39.9117 50.7499 42 48.5749 42 45.9166V43.5V31.4166V21.75V14.5H0Z" fill="#ECF0F1"/>
<path d="M0 12.0834V16.9167V19.3334V26.5834V29V41.0833V43.5C0 46.1583 2.08927 48.3333 4.66667 48.3333H37.3333C39.9117 48.3333 42 46.1583 42 43.5V41.0833V29V19.3334V12.0834H0Z" fill="#BDC3C7"/>
<path d="M0 9.66663V14.5V16.9166V24.1666V26.5833V38.6666V41.0832C0 43.7416 2.08927 45.9166 4.66667 45.9166H37.3333C39.9117 45.9166 42 43.7416 42 41.0832V38.6666V26.5833V16.9166V9.66663H0Z" fill="#ECF0F1"/>
<path d="M4.66667 0C2.08927 0 0 2.175 0 4.83333V7.24999V16.9166V21.75V24.1666V31.4166V33.8333V45.9166V48.3333C0 50.9916 2.08927 53.1666 4.66667 53.1666H9.33333V50.7499H5.83333C3.9004 50.7499 2.33333 49.0583 2.33333 47.1249C2.33333 44.9499 3.9004 43.4999 5.83333 43.4999H35H37.3333C39.9117 43.4999 42 41.3249 42 38.6666V36.2499V24.1666V14.5V7.24999V4.83333C42 2.175 39.9117 0 37.3333 0H28H4.66667Z" fill="#6A14DA"/>
<path d="M11.6667 0V43.4999H14H35H37.3333C39.9117 43.4999 42 41.3249 42 38.6666V36.2499V24.1666V14.5V7.24999V4.83333C42 2.175 39.9117 0 37.3333 0H28H14H11.6667Z" fill="#872BFF"/>
<path d="M9.33334 48.3334V53.1667V58L15.1667 53.1667L21 58V53.1667V48.3334H9.33334Z" fill="#E74C3C"/>
<path d="M21 45.9165H9.33334V48.3332H21V45.9165Z" fill="#C0392B"/>
</svg>
