<svg width="100" height="100" viewBox="0 0 100 100" fill="none" xmlns="http://www.w3.org/2000/svg">
<rect width="100" height="100" rx="30" fill="#F411CF"/>
<path fill-rule="evenodd" clip-rule="evenodd" d="M45.3885 32H54.6115C63.3069 32 67.6545 32 70.3559 34.636C72.2159 36.451 72.7953 39.0276 72.9756 43.2263C73.0115 44.059 73.0294 44.4753 72.8705 44.7531C72.7115 45.0308 72.077 45.3775 70.8078 46.0708C69.3984 46.8408 68.4457 48.3118 68.4457 50C68.4457 51.6882 69.3984 53.1592 70.8078 53.9292C72.077 54.6226 72.7115 54.9691 72.8705 55.247C73.0294 55.5246 73.0115 55.9411 72.9756 56.7736C72.7953 60.9723 72.2159 63.549 70.3559 65.3639C67.6545 68 63.3069 68 54.6115 68H45.3885C36.6931 68 32.3454 68 29.644 65.3639C27.7841 63.549 27.2048 60.9723 27.0243 56.7736C26.9885 55.9411 26.9706 55.5246 27.1296 55.247C27.2885 54.9691 27.9231 54.6226 29.1921 53.9292C30.6015 53.1592 31.5542 51.6882 31.5542 50C31.5542 48.3118 30.6015 46.8408 29.1921 46.0708C27.9231 45.3775 27.2885 45.0308 27.1296 44.753C26.9706 44.4753 26.9885 44.059 27.0243 43.2263C27.2048 39.0276 27.7841 36.451 29.644 34.636C32.3454 32 36.6931 32 45.3885 32ZM58.1599 42.0568C58.8354 42.7158 58.8354 43.7842 58.1599 44.4432L44.3256 57.9432C43.6503 58.6022 42.5554 58.6022 41.88 57.9432C41.2047 57.2842 41.2047 56.2158 41.88 55.5568L55.7143 42.0568C56.3898 41.3978 57.4846 41.3978 58.1599 42.0568ZM55.7842 57.875C57.0578 57.875 58.09 56.8677 58.09 55.625C58.09 54.3823 57.0578 53.375 55.7842 53.375C54.511 53.375 53.4785 54.3823 53.4785 55.625C53.4785 56.8677 54.511 57.875 55.7842 57.875ZM44.2557 46.625C45.529 46.625 46.5615 45.6177 46.5615 44.375C46.5615 43.1324 45.529 42.125 44.2557 42.125C42.9823 42.125 41.95 43.1324 41.95 44.375C41.95 45.6177 42.9823 46.625 44.2557 46.625Z" fill="white"/>
</svg>
