<svg width="100" height="100" viewBox="0 0 100 100" fill="none" xmlns="http://www.w3.org/2000/svg">
<rect width="100" height="100" rx="30" fill="#872BFF"/>
<path fill-rule="evenodd" clip-rule="evenodd" d="M50 67.9995L51.416 69.4114C51.2302 69.598 51.0094 69.746 50.7662 69.847C50.523 69.948 50.2623 70 49.999 70C49.7357 70 49.475 69.948 49.2318 69.847C48.9886 69.746 48.7678 69.598 48.582 69.4114L48.57 69.3974L48.536 69.3634L48.412 69.2374C47.707 68.5112 47.0136 67.7738 46.332 67.0255C44.6208 65.1504 42.9823 63.2104 41.42 61.2095C39.636 58.9096 37.812 56.3096 36.426 53.7417C35.07 51.2237 34 48.4957 34 45.9998C34 36.9219 41.184 30 50 30C58.816 30 66 36.9219 66 45.9998C66 48.4957 64.93 51.2237 63.574 53.7397C62.188 56.3116 60.366 58.9096 58.58 61.2095C56.3948 64.0088 54.0607 66.6886 51.588 69.2374L51.464 69.3634L51.43 69.3974L51.418 69.4094L50 67.9995ZM50 51.9997C51.5913 51.9997 53.1174 51.3675 54.2426 50.2423C55.3679 49.1171 56 47.591 56 45.9998C56 44.4085 55.3679 42.8824 54.2426 41.7572C53.1174 40.632 51.5913 39.9999 50 39.9999C48.4087 39.9999 46.8826 40.632 45.7574 41.7572C44.6321 42.8824 44 44.4085 44 45.9998C44 47.591 44.6321 49.1171 45.7574 50.2423C46.8826 51.3675 48.4087 51.9997 50 51.9997Z" fill="white"/>
</svg>
