<svg width="41" height="40" viewBox="0 0 41 40" fill="none" xmlns="http://www.w3.org/2000/svg">
<path d="M28.8333 6.66667H25.5V3.33333H15.5V6.66667H12.1667V3.33333C12.1667 1.5 13.6667 0 15.5 0H25.5C27.3333 0 28.8333 1.5 28.8333 3.33333V6.66667ZM40.5 13.3333V35C40.5 36.8333 39 38.3333 37.1667 38.3333H35.5C35.5 39.3333 34.8333 40 33.8333 40H30.5C29.5 40 28.8333 39.3333 28.8333 38.3333H12.1667C12.1667 39.3333 11.5 40 10.5 40H7.16667C6.16667 40 5.5 39.3333 5.5 38.3333H3.83333C2 38.3333 0.5 36.8333 0.5 35V13.3333C0.5 11.5 2 10 3.83333 10H37.1667C39 10 40.5 11.5 40.5 13.3333ZM7.16667 20C7.16667 21.8333 8.66667 23.3333 10.5 23.3333C12.3333 23.3333 13.8333 21.8333 13.8333 20C13.8333 18.1667 12.3333 16.6667 10.5 16.6667C8.66667 16.6667 7.16667 18.1667 7.16667 20ZM19.5 30L17.6667 25.3333L9.83333 28.3333L11.6667 33L19.5 30ZM30 25.8333L34.6667 21.1667L27.6667 14.1667L23 18.8333L30 25.8333Z" fill="url(#paint0_linear_3_914)"/>
<defs>
<linearGradient id="paint0_linear_3_914" x1="20.5" y1="0" x2="27.1048" y2="39.4464" gradientUnits="userSpaceOnUse">
<stop stop-color="#C82BFF"/>
<stop offset="1" stop-color="#660BDD"/>
</linearGradient>
</defs>
</svg>
