<svg width="40" height="73" viewBox="0 0 40 73" fill="none" xmlns="http://www.w3.org/2000/svg">
<path d="M16 2.98279H13.3334V21.6035H16V2.98279Z" fill="#5B5D6E"/>
<path d="M26.6667 2.98279H24V21.6035H26.6667V2.98279Z" fill="#5B5D6E"/>
<path d="M6.66672 72.5001H4.00008C3.26375 72.5001 2.66669 71.9442 2.66669 71.2587V65.0518H7.99996V71.2587C8.00011 71.9442 7.40304 72.5001 6.66672 72.5001Z" fill="#464655"/>
<path d="M36 72.5001H33.3334C32.5971 72.5001 32 71.9442 32 71.2587V65.0518H37.3333V71.2587C37.3334 71.9442 36.7364 72.5001 36 72.5001Z" fill="#464655"/>
<path d="M37.3334 67.5346H2.66664C1.19383 67.5346 0 66.4231 0 65.0518V26.569C0 23.1411 2.98488 20.3621 6.66667 20.3621H33.3333C37.0151 20.3621 40 23.1411 40 26.569V65.0517C40 66.4231 38.8062 67.5346 37.3334 67.5346Z" fill="#872BFF"/>
<path d="M32 38.9828H8.00007C6.52727 38.9828 5.33344 40.0943 5.33344 41.4655V56.3621C5.33344 57.7333 6.52727 58.8448 8.00007 58.8448H32.0001C33.4729 58.8448 34.6667 57.7333 34.6667 56.3621V41.4655C34.6666 40.0943 33.4728 38.9828 32 38.9828Z" fill="#6A14DA"/>
<path d="M32 34.0173H8.00007C6.52727 34.0173 5.33344 32.9058 5.33344 31.5345V27.8104C5.33344 26.4391 6.52727 25.3276 8.00007 25.3276H32.0001C33.4729 25.3276 34.6667 26.4391 34.6667 27.8104V31.5345C34.6666 32.9058 33.4728 34.0173 32 34.0173Z" fill="#6A14DA"/>
<path d="M26.6667 4.22417H13.3333C12.597 4.22417 11.9999 3.66828 11.9999 2.98273V1.74144C11.9999 1.05589 12.597 0.5 13.3333 0.5H26.6667C27.403 0.5 28.0001 1.05589 28.0001 1.74144V2.98288C28.0001 3.66828 27.403 4.22417 26.6667 4.22417Z" fill="#707487"/>
<path d="M0 63.8104H40V65.0519C40 66.4231 38.8062 67.5346 37.3334 67.5346H2.66664C1.19383 67.5346 0 66.4231 0 65.0519V63.8104Z" fill="#5B5D6E"/>
</svg>
